<svg width="260" height="80" viewBox="0 0 260 80" fill="none" xmlns="http://www.w3.org/2000/svg">
<path d="M15.124 12.412C18.012 12.412 21.128 13.058 22.876 14.274C23.826 14.958 24.244 15.718 24.244 16.592C24.244 17.352 23.902 18.34 23.256 18.34C22.268 18.34 20.14 16.782 16.074 16.782C11.134 16.782 7.296 19.366 7.296 26.51C7.296 33.578 11.134 36.2 16.074 36.2C20.178 36.2 22.838 34.68 23.636 34.68C24.358 34.68 24.738 35.516 24.738 36.2C24.738 39.316 19.988 40.57 15.124 40.57C7.258 40.57 1.9 35.858 1.9 26.51C1.9 17.124 7.296 12.412 15.124 12.412ZM45.7879 30.88C45.7879 35.364 43.8119 40.532 35.9459 40.532C28.0419 40.532 26.1039 35.364 26.1039 30.88C26.1039 26.396 28.0419 21.228 35.9459 21.228C43.8119 21.228 45.7879 26.396 45.7879 30.88ZM31.2719 30.88C31.2719 33.54 32.1459 36.58 35.9459 36.58C39.7079 36.58 40.5819 33.54 40.5819 30.88C40.5819 28.258 39.7079 25.218 35.9459 25.218C32.1459 25.218 31.2719 28.258 31.2719 30.88ZM57.2455 36.466C59.3735 36.466 60.4755 35.25 61.1215 33.92V23.014C61.1215 22.026 61.5015 21.684 62.5275 21.684H64.8835C65.9475 21.684 66.2515 22.026 66.2515 23.014V38.746C66.2515 39.658 65.9095 40 64.6555 40C62.5655 40 62.1095 39.886 61.2355 38.1C59.7915 39.506 57.9675 40.456 55.5735 40.456C50.0635 40.456 48.8475 36.504 48.8475 32.438V23.014C48.8475 22.026 49.1895 21.684 50.2535 21.684H52.5715C53.6355 21.684 53.9775 22.026 53.9775 23.014V33.046C53.9775 35.136 55.0035 36.466 57.2455 36.466ZM70.4645 38.67V22.938C70.4645 22.026 70.8065 21.684 72.0605 21.684C73.9605 21.684 74.4925 21.836 75.2145 23.204C76.2785 21.95 77.7225 21.304 79.4705 21.304C82.2445 21.304 83.1185 22.976 83.1185 24.154C83.1185 25.484 82.6245 26.206 82.2445 26.206C81.7505 26.206 81.0665 25.712 79.7745 25.712C77.1905 25.712 75.8225 26.89 75.5945 29.17V38.67C75.5945 39.696 75.2145 40 74.1885 40H71.8325C70.8065 40 70.4645 39.696 70.4645 38.67ZM85.2117 38.67V23.014C85.2117 22.026 85.5537 21.684 86.5797 21.684H88.9737C89.9997 21.684 90.3417 22.026 90.3417 23.014V38.67C90.3417 39.696 89.9617 40 88.9737 40H86.5797C85.5917 40 85.2117 39.696 85.2117 38.67ZM84.9837 17.428V15.11C84.9837 14.122 85.3637 13.78 86.3517 13.78H89.2017C90.1897 13.78 90.5697 14.122 90.5697 15.11V17.428C90.5697 18.416 90.1897 18.758 89.2017 18.758H86.3517C85.3637 18.758 84.9837 18.416 84.9837 17.428ZM109.93 32.4H98.6821C99.0241 35.63 101.418 36.656 104.344 36.656C107.156 36.656 109.854 35.63 110.538 35.63C111.07 35.63 111.412 36.124 111.412 36.96C111.412 37.91 110.88 38.556 110.082 39.088C108.676 40 106.32 40.456 103.926 40.456C97.7321 40.456 93.6281 37.302 93.6281 30.766C93.6281 24.99 96.8201 21.304 102.938 21.304C108.296 21.304 111.754 24.116 111.754 30.5C111.754 32.172 111.488 32.4 109.93 32.4ZM103.014 24.914C100.05 24.914 98.7581 26.586 98.6441 29.284H106.928C106.928 26.282 105.712 24.914 103.014 24.914ZM115.077 38.67V22.938C115.077 22.026 115.419 21.684 116.673 21.684C118.573 21.684 119.105 21.836 119.827 23.204C120.891 21.95 122.335 21.304 124.083 21.304C126.857 21.304 127.731 22.976 127.731 24.154C127.731 25.484 127.237 26.206 126.857 26.206C126.363 26.206 125.679 25.712 124.387 25.712C121.803 25.712 120.435 26.89 120.207 29.17V38.67C120.207 39.696 119.827 40 118.801 40H116.445C115.419 40 115.077 39.696 115.077 38.67Z" fill="#821518"/>
<path d="M138.614 13.97C138.614 12.982 138.956 12.64 139.982 12.64H146.67C158.26 12.64 162.136 19.556 162.136 26.472C162.136 33.236 157.842 40 146.936 40H139.982C138.956 40 138.614 39.658 138.614 38.67V13.97ZM146.898 16.326H144.01V36.124H146.974C154.08 36.124 156.778 31.374 156.778 26.51C156.778 21.38 154.194 16.326 146.898 16.326ZM165.554 38.67V23.014C165.554 22.026 165.896 21.684 166.922 21.684H169.316C170.342 21.684 170.684 22.026 170.684 23.014V38.67C170.684 39.696 170.304 40 169.316 40H166.922C165.934 40 165.554 39.696 165.554 38.67ZM165.326 17.428V15.11C165.326 14.122 165.706 13.78 166.694 13.78H169.544C170.532 13.78 170.912 14.122 170.912 15.11V17.428C170.912 18.416 170.532 18.758 169.544 18.758H166.694C165.706 18.758 165.326 18.416 165.326 17.428ZM174.92 38.67V22.938C174.92 22.026 175.262 21.684 176.516 21.684C178.416 21.684 178.948 21.836 179.67 23.204C180.734 21.95 182.178 21.304 183.926 21.304C186.7 21.304 187.574 22.976 187.574 24.154C187.574 25.484 187.08 26.206 186.7 26.206C186.206 26.206 185.522 25.712 184.23 25.712C181.646 25.712 180.278 26.89 180.05 29.17V38.67C180.05 39.696 179.67 40 178.644 40H176.288C175.262 40 174.92 39.696 174.92 38.67ZM204.574 32.4H193.326C193.668 35.63 196.062 36.656 198.988 36.656C201.8 36.656 204.498 35.63 205.182 35.63C205.714 35.63 206.056 36.124 206.056 36.96C206.056 37.91 205.524 38.556 204.726 39.088C203.32 40 200.964 40.456 198.57 40.456C192.376 40.456 188.272 37.302 188.272 30.766C188.272 24.99 191.464 21.304 197.582 21.304C202.94 21.304 206.398 24.116 206.398 30.5C206.398 32.172 206.132 32.4 204.574 32.4ZM197.658 24.914C194.694 24.914 193.402 26.586 193.288 29.284H201.572C201.572 26.282 200.356 24.914 197.658 24.914ZM213.939 30.652C213.939 34.756 216.409 36.39 219.221 36.39C221.577 36.39 223.439 35.364 224.047 35.364C224.427 35.364 224.731 35.744 224.731 36.618C224.731 37.188 224.579 38.252 223.553 39.05C222.451 39.924 220.361 40.418 218.233 40.418C212.343 40.418 208.733 36.656 208.733 30.69C208.733 24.8 212.267 21.304 218.233 21.304C220.019 21.304 221.805 21.608 222.983 22.33C223.895 22.862 224.351 23.622 224.351 24.648C224.351 25.598 223.895 26.054 223.477 26.054C222.907 26.054 221.387 25.066 219.107 25.066C215.915 25.066 213.939 27.004 213.939 30.652ZM233.629 18.226V21.684H236.935C237.771 21.684 238.037 21.95 238.037 22.672V24.458C238.037 25.142 237.771 25.446 236.935 25.446H233.667V33.768C233.705 35.288 234.237 36.238 235.757 36.238C236.935 36.238 237.809 35.744 238.227 35.744C238.493 35.744 239.025 36.048 239.025 37.036C239.025 38.594 237.543 40.228 234.275 40.228C230.551 40.228 228.537 38.138 228.537 34.49V25.446H227.169C226.371 25.446 226.143 25.18 226.143 24.458V22.71C226.143 21.988 226.371 21.684 227.169 21.684H229.031L229.069 21.456C229.715 16.896 230.285 16.478 231.615 16.478C233.439 16.478 233.629 16.668 233.629 18.226Z" fill="#1B427B"/>
<path d="M155 47H173L179 57L173 67H155L160.5 57L155 47Z" fill="#1B427B"/>
<path d="M185 47H203L209 57L203 67H185L190.5 57L185 47Z" fill="#821518"/>
<path d="M215 47H233L239 57L233 67H215L220.5 57L215 47Z" fill="#1B427B"/>
</svg>
