<svg xmlns="http://www.w3.org/2000/svg" xmlns:xlink="http://www.w3.org/1999/xlink" width="1080" zoomAndPan="magnify" viewBox="0 0 810 809.999993" height="1080" preserveAspectRatio="xMidYMid meet" version="1.0"><defs><g/><clipPath id="83648b0132"><path d="M 278 81 L 495 81 L 495 484.5 L 278 484.5 Z M 278 81 " clip-rule="nonzero"/></clipPath><clipPath id="d91bccb8e2"><path d="M 494 300 L 629.207031 300 L 629.207031 484.5 L 494 484.5 Z M 494 300 " clip-rule="nonzero"/></clipPath><clipPath id="994746b23a"><path d="M 164.957031 300 L 300 300 L 300 484.5 L 164.957031 484.5 Z M 164.957031 300 " clip-rule="nonzero"/></clipPath><clipPath id="bc4dad5765"><rect x="0" width="119" y="0" height="43"/></clipPath><clipPath id="423d8518a3"><path d="M 0.839844 0.480469 L 439.800781 0.480469 L 439.800781 209.28125 L 0.839844 209.28125 Z M 0.839844 0.480469 " clip-rule="nonzero"/></clipPath><clipPath id="89cf49fc17"><rect x="0" width="440" y="0" height="210"/></clipPath><clipPath id="5c397456ce"><rect x="0" width="440" y="0" height="210"/></clipPath></defs><g clip-path="url(#83648b0132)"><path fill="#d79024" d="M 397.199219 181.226562 L 357.945312 249.40625 L 493.367188 484.441406 L 306.851562 484.441406 L 278.089844 434.578125 L 407.027344 434.578125 L 300.378906 249.40625 L 397.199219 81.296875 L 494.75 250.421875 L 465.90625 300.222656 Z M 397.199219 181.226562 " fill-opacity="1" fill-rule="nonzero"/></g><g clip-path="url(#d91bccb8e2)"><path fill="#ffffff" d="M 629.429688 484.441406 L 571.863281 484.441406 L 494.789062 350.695312 L 523.566406 300.640625 Z M 629.429688 484.441406 " fill-opacity="1" fill-rule="nonzero"/></g><g clip-path="url(#994746b23a)"><path fill="#ffffff" d="M 299.878906 350.625 L 222.523438 484.441406 L 164.957031 484.441406 L 271.097656 300.589844 Z M 299.878906 350.625 " fill-opacity="1" fill-rule="nonzero"/></g><g transform="matrix(1, 0, 0, 1, 177, 516)"><g clip-path="url(#5c397456ce)"><g transform="matrix(1, 0, 0, 1, 161, 83)"><g clip-path="url(#bc4dad5765)"><g fill="#ffffff" fill-opacity="1"><g transform="translate(0.706391, 31.652852)"><g><path d="M 8.671875 -20.546875 C 10.910156 -20.546875 12.847656 -20.128906 14.484375 -19.296875 C 16.128906 -18.460938 17.390625 -17.269531 18.265625 -15.71875 C 19.140625 -14.164062 19.578125 -12.335938 19.578125 -10.234375 C 19.578125 -8.128906 19.140625 -6.304688 18.265625 -4.765625 C 17.390625 -3.222656 16.128906 -2.039062 14.484375 -1.21875 C 12.847656 -0.40625 10.910156 0 8.671875 0 L 2.265625 0 L 2.265625 -20.546875 Z M 8.671875 -2.21875 C 11.328125 -2.21875 13.347656 -2.914062 14.734375 -4.3125 C 16.128906 -5.71875 16.828125 -7.691406 16.828125 -10.234375 C 16.828125 -12.785156 16.125 -14.78125 14.71875 -16.21875 C 13.320312 -17.65625 11.304688 -18.375 8.671875 -18.375 L 4.953125 -18.375 L 4.953125 -2.21875 Z M 8.671875 -2.21875 "/></g></g></g><g fill="#ffffff" fill-opacity="1"><g transform="translate(21.5477, 31.652852)"><g><path d="M 14.421875 -4.5625 L 5.453125 -4.5625 L 3.796875 0 L 0.96875 0 L 8.40625 -20.4375 L 11.5 -20.4375 L 18.90625 0 L 16.0625 0 Z M 13.65625 -6.75 L 9.9375 -17.125 L 6.21875 -6.75 Z M 13.65625 -6.75 "/></g></g></g><g fill="#ffffff" fill-opacity="1"><g transform="translate(41.416217, 31.652852)"><g><path d="M 18.421875 0 L 15.75 0 L 4.953125 -16.359375 L 4.953125 0 L 2.265625 0 L 2.265625 -20.578125 L 4.953125 -20.578125 L 15.75 -4.25 L 15.75 -20.578125 L 18.421875 -20.578125 Z M 18.421875 0 "/></g></g></g><g fill="#ffffff" fill-opacity="1"><g transform="translate(62.13962, 31.652852)"><g><path d="M 17.84375 -14.59375 C 17.269531 -15.789062 16.441406 -16.71875 15.359375 -17.375 C 14.273438 -18.039062 13.019531 -18.375 11.59375 -18.375 C 10.15625 -18.375 8.859375 -18.039062 7.703125 -17.375 C 6.554688 -16.71875 5.65625 -15.773438 5 -14.546875 C 4.34375 -13.316406 4.015625 -11.898438 4.015625 -10.296875 C 4.015625 -8.679688 4.34375 -7.265625 5 -6.046875 C 5.65625 -4.828125 6.554688 -3.882812 7.703125 -3.21875 C 8.859375 -2.5625 10.15625 -2.234375 11.59375 -2.234375 C 13.59375 -2.234375 15.238281 -2.832031 16.53125 -4.03125 C 17.832031 -5.238281 18.59375 -6.863281 18.8125 -8.90625 L 10.609375 -8.90625 L 10.609375 -11.09375 L 21.671875 -11.09375 L 21.671875 -9.015625 C 21.515625 -7.328125 20.984375 -5.78125 20.078125 -4.375 C 19.171875 -2.96875 17.976562 -1.859375 16.5 -1.046875 C 15.03125 -0.234375 13.394531 0.171875 11.59375 0.171875 C 9.6875 0.171875 7.945312 -0.269531 6.375 -1.15625 C 4.800781 -2.050781 3.554688 -3.296875 2.640625 -4.890625 C 1.722656 -6.484375 1.265625 -8.285156 1.265625 -10.296875 C 1.265625 -12.296875 1.722656 -14.097656 2.640625 -15.703125 C 3.554688 -17.304688 4.800781 -18.550781 6.375 -19.4375 C 7.945312 -20.332031 9.6875 -20.78125 11.59375 -20.78125 C 13.769531 -20.78125 15.695312 -20.238281 17.375 -19.15625 C 19.0625 -18.082031 20.285156 -16.5625 21.046875 -14.59375 Z M 17.84375 -14.59375 "/></g></g></g><g fill="#ffffff" fill-opacity="1"><g transform="translate(85.073907, 31.652852)"><g><path d="M 14.421875 -4.5625 L 5.453125 -4.5625 L 3.796875 0 L 0.96875 0 L 8.40625 -20.4375 L 11.5 -20.4375 L 18.90625 0 L 16.0625 0 Z M 13.65625 -6.75 L 9.9375 -17.125 L 6.21875 -6.75 Z M 13.65625 -6.75 "/></g></g></g><g fill="#ffffff" fill-opacity="1"><g transform="translate(104.942424, 31.652852)"><g><path d="M 4.953125 -2.1875 L 12.140625 -2.1875 L 12.140625 0 L 2.265625 0 L 2.265625 -20.546875 L 4.953125 -20.546875 Z M 4.953125 -2.1875 "/></g></g></g></g></g><g clip-path="url(#423d8518a3)"><g transform="matrix(1, 0, 0, 1, 0, 0.000000000000113687)"><g clip-path="url(#89cf49fc17)"><g fill="#ffffff" fill-opacity="1"><g transform="translate(1.538832, 78.003181)"><g><path d="M 23.65625 0.53125 C 19.8125 0.53125 16.367188 -0.09375 13.328125 -1.34375 C 10.285156 -2.59375 7.851562 -4.441406 6.03125 -6.890625 C 4.207031 -9.335938 3.242188 -12.28125 3.140625 -15.71875 L 16.765625 -15.71875 C 16.960938 -13.769531 17.632812 -12.285156 18.78125 -11.265625 C 19.9375 -10.242188 21.4375 -9.734375 23.28125 -9.734375 C 25.175781 -9.734375 26.671875 -10.171875 27.765625 -11.046875 C 28.867188 -11.921875 29.421875 -13.128906 29.421875 -14.671875 C 29.421875 -15.972656 28.984375 -17.046875 28.109375 -17.890625 C 27.234375 -18.734375 26.160156 -19.429688 24.890625 -19.984375 C 23.617188 -20.535156 21.8125 -21.160156 19.46875 -21.859375 C 16.070312 -22.910156 13.300781 -23.957031 11.15625 -25 C 9.007812 -26.050781 7.160156 -27.597656 5.609375 -29.640625 C 4.066406 -31.691406 3.296875 -34.363281 3.296875 -37.65625 C 3.296875 -42.539062 5.066406 -46.367188 8.609375 -49.140625 C 12.148438 -51.910156 16.765625 -53.296875 22.453125 -53.296875 C 28.242188 -53.296875 32.910156 -51.910156 36.453125 -49.140625 C 39.992188 -46.367188 41.890625 -42.515625 42.140625 -37.578125 L 28.296875 -37.578125 C 28.191406 -39.273438 27.566406 -40.609375 26.421875 -41.578125 C 25.273438 -42.554688 23.804688 -43.046875 22.015625 -43.046875 C 20.460938 -43.046875 19.210938 -42.632812 18.265625 -41.8125 C 17.316406 -40.988281 16.84375 -39.800781 16.84375 -38.25 C 16.84375 -36.550781 17.640625 -35.226562 19.234375 -34.28125 C 20.835938 -33.332031 23.332031 -32.3125 26.71875 -31.21875 C 30.113281 -30.070312 32.867188 -28.972656 34.984375 -27.921875 C 37.109375 -26.867188 38.941406 -25.34375 40.484375 -23.34375 C 42.035156 -21.351562 42.8125 -18.785156 42.8125 -15.640625 C 42.8125 -12.648438 42.050781 -9.929688 40.53125 -7.484375 C 39.007812 -5.035156 36.800781 -3.085938 33.90625 -1.640625 C 31.007812 -0.191406 27.59375 0.53125 23.65625 0.53125 Z M 23.65625 0.53125 "/></g></g></g><g fill="#ffffff" fill-opacity="1"><g transform="translate(47.567734, 78.003181)"><g><path d="M 37.359375 -9.28125 L 17.734375 -9.28125 L 14.59375 0 L 1.203125 0 L 20.21875 -52.546875 L 35.03125 -52.546875 L 54.046875 0 L 40.5 0 Z M 34.0625 -19.15625 L 27.546875 -38.40625 L 21.109375 -19.15625 Z M 34.0625 -19.15625 "/></g></g></g><g fill="#ffffff" fill-opacity="1"><g transform="translate(102.727576, 78.003181)"><g><path d="M 64.15625 -52.546875 L 64.15625 0 L 51.359375 0 L 51.359375 -31.515625 L 39.59375 0 L 29.265625 0 L 17.4375 -31.59375 L 17.4375 0 L 4.640625 0 L 4.640625 -52.546875 L 19.765625 -52.546875 L 34.515625 -16.171875 L 49.109375 -52.546875 Z M 64.15625 -52.546875 "/></g></g></g><g fill="#ffffff" fill-opacity="1"><g transform="translate(171.434135, 78.003181)"><g><path d="M 17.21875 -52.546875 L 17.21875 -21.109375 C 17.21875 -17.960938 17.988281 -15.539062 19.53125 -13.84375 C 21.082031 -12.144531 23.351562 -11.296875 26.34375 -11.296875 C 29.34375 -11.296875 31.640625 -12.144531 33.234375 -13.84375 C 34.835938 -15.539062 35.640625 -17.960938 35.640625 -21.109375 L 35.640625 -52.546875 L 48.4375 -52.546875 L 48.4375 -21.1875 C 48.4375 -16.488281 47.4375 -12.519531 45.4375 -9.28125 C 43.4375 -6.039062 40.753906 -3.59375 37.390625 -1.9375 C 34.023438 -0.289062 30.269531 0.53125 26.125 0.53125 C 21.976562 0.53125 18.269531 -0.28125 15 -1.90625 C 11.738281 -3.53125 9.160156 -5.972656 7.265625 -9.234375 C 5.367188 -12.503906 4.421875 -16.488281 4.421875 -21.1875 L 4.421875 -52.546875 Z M 17.21875 -52.546875 "/></g></g></g><g fill="#ffffff" fill-opacity="1"><g transform="translate(224.198969, 78.003181)"><g><path d="M 51.65625 0 L 38.859375 0 L 17.4375 -32.421875 L 17.4375 0 L 4.640625 0 L 4.640625 -52.546875 L 17.4375 -52.546875 L 38.859375 -19.984375 L 38.859375 -52.546875 L 51.65625 -52.546875 Z M 51.65625 0 "/></g></g></g><g fill="#ffffff" fill-opacity="1"><g transform="translate(280.481461, 78.003181)"><g><path d="M 24.328125 -52.546875 C 29.867188 -52.546875 34.707031 -51.445312 38.84375 -49.25 C 42.988281 -47.0625 46.195312 -43.984375 48.46875 -40.015625 C 50.738281 -36.046875 51.875 -31.46875 51.875 -26.28125 C 51.875 -21.132812 50.738281 -16.566406 48.46875 -12.578125 C 46.195312 -8.585938 42.976562 -5.492188 38.8125 -3.296875 C 34.644531 -1.097656 29.816406 0 24.328125 0 L 4.640625 0 L 4.640625 -52.546875 Z M 23.5 -11.078125 C 28.34375 -11.078125 32.113281 -12.398438 34.8125 -15.046875 C 37.507812 -17.691406 38.859375 -21.4375 38.859375 -26.28125 C 38.859375 -31.113281 37.507812 -34.878906 34.8125 -37.578125 C 32.113281 -40.273438 28.34375 -41.625 23.5 -41.625 L 17.4375 -41.625 L 17.4375 -11.078125 Z M 23.5 -11.078125 "/></g></g></g><g fill="#ffffff" fill-opacity="1"><g transform="translate(334.892859, 78.003181)"><g><path d="M 31.4375 0 L 20.515625 -19.84375 L 17.4375 -19.84375 L 17.4375 0 L 4.640625 0 L 4.640625 -52.546875 L 26.125 -52.546875 C 30.269531 -52.546875 33.800781 -51.820312 36.71875 -50.375 C 39.632812 -48.925781 41.816406 -46.941406 43.265625 -44.421875 C 44.710938 -41.910156 45.4375 -39.101562 45.4375 -36 C 45.4375 -32.507812 44.453125 -29.390625 42.484375 -26.640625 C 40.515625 -23.898438 37.609375 -21.957031 33.765625 -20.8125 L 45.890625 0 Z M 17.4375 -28.890625 L 25.375 -28.890625 C 27.71875 -28.890625 29.476562 -29.460938 30.65625 -30.609375 C 31.832031 -31.765625 32.421875 -33.390625 32.421875 -35.484375 C 32.421875 -37.484375 31.832031 -39.054688 30.65625 -40.203125 C 29.476562 -41.347656 27.71875 -41.921875 25.375 -41.921875 L 17.4375 -41.921875 Z M 17.4375 -28.890625 "/></g></g></g><g fill="#ffffff" fill-opacity="1"><g transform="translate(383.690976, 78.003181)"><g><path d="M 37.359375 -9.28125 L 17.734375 -9.28125 L 14.59375 0 L 1.203125 0 L 20.21875 -52.546875 L 35.03125 -52.546875 L 54.046875 0 L 40.5 0 Z M 34.0625 -19.15625 L 27.546875 -38.40625 L 21.109375 -19.15625 Z M 34.0625 -19.15625 "/></g></g></g><g fill="#d79024" fill-opacity="1"><g transform="translate(60.284727, 182.268273)"><g><path d="M 64.15625 -52.546875 L 64.15625 0 L 51.359375 0 L 51.359375 -31.515625 L 39.59375 0 L 29.265625 0 L 17.4375 -31.59375 L 17.4375 0 L 4.640625 0 L 4.640625 -52.546875 L 19.765625 -52.546875 L 34.515625 -16.171875 L 49.109375 -52.546875 Z M 64.15625 -52.546875 "/></g></g></g><g fill="#d79024" fill-opacity="1"><g transform="translate(128.991286, 182.268273)"><g><path d="M 37.359375 -9.28125 L 17.734375 -9.28125 L 14.59375 0 L 1.203125 0 L 20.21875 -52.546875 L 35.03125 -52.546875 L 54.046875 0 L 40.5 0 Z M 34.0625 -19.15625 L 27.546875 -38.40625 L 21.109375 -19.15625 Z M 34.0625 -19.15625 "/></g></g></g><g fill="#d79024" fill-opacity="1"><g transform="translate(184.151127, 182.268273)"><g><path d="M 50.15625 -52.546875 L 50.15625 0 L 37.359375 0 L 37.359375 -21.640625 L 17.4375 -21.640625 L 17.4375 0 L 4.640625 0 L 4.640625 -52.546875 L 17.4375 -52.546875 L 17.4375 -31.96875 L 37.359375 -31.96875 L 37.359375 -52.546875 Z M 50.15625 -52.546875 "/></g></g></g><g fill="#d79024" fill-opacity="1"><g transform="translate(238.86191, 182.268273)"><g><path d="M 17.4375 -42.296875 L 17.4375 -31.671875 L 34.578125 -31.671875 L 34.578125 -21.78125 L 17.4375 -21.78125 L 17.4375 -10.25 L 36.828125 -10.25 L 36.828125 0 L 4.640625 0 L 4.640625 -52.546875 L 36.828125 -52.546875 L 36.828125 -42.296875 Z M 17.4375 -42.296875 "/></g></g></g><g fill="#d79024" fill-opacity="1"><g transform="translate(279.352368, 182.268273)"><g><path d="M 23.65625 0.53125 C 19.8125 0.53125 16.367188 -0.09375 13.328125 -1.34375 C 10.285156 -2.59375 7.851562 -4.441406 6.03125 -6.890625 C 4.207031 -9.335938 3.242188 -12.28125 3.140625 -15.71875 L 16.765625 -15.71875 C 16.960938 -13.769531 17.632812 -12.285156 18.78125 -11.265625 C 19.9375 -10.242188 21.4375 -9.734375 23.28125 -9.734375 C 25.175781 -9.734375 26.671875 -10.171875 27.765625 -11.046875 C 28.867188 -11.921875 29.421875 -13.128906 29.421875 -14.671875 C 29.421875 -15.972656 28.984375 -17.046875 28.109375 -17.890625 C 27.234375 -18.734375 26.160156 -19.429688 24.890625 -19.984375 C 23.617188 -20.535156 21.8125 -21.160156 19.46875 -21.859375 C 16.070312 -22.910156 13.300781 -23.957031 11.15625 -25 C 9.007812 -26.050781 7.160156 -27.597656 5.609375 -29.640625 C 4.066406 -31.691406 3.296875 -34.363281 3.296875 -37.65625 C 3.296875 -42.539062 5.066406 -46.367188 8.609375 -49.140625 C 12.148438 -51.910156 16.765625 -53.296875 22.453125 -53.296875 C 28.242188 -53.296875 32.910156 -51.910156 36.453125 -49.140625 C 39.992188 -46.367188 41.890625 -42.515625 42.140625 -37.578125 L 28.296875 -37.578125 C 28.191406 -39.273438 27.566406 -40.609375 26.421875 -41.578125 C 25.273438 -42.554688 23.804688 -43.046875 22.015625 -43.046875 C 20.460938 -43.046875 19.210938 -42.632812 18.265625 -41.8125 C 17.316406 -40.988281 16.84375 -39.800781 16.84375 -38.25 C 16.84375 -36.550781 17.640625 -35.226562 19.234375 -34.28125 C 20.835938 -33.332031 23.332031 -32.3125 26.71875 -31.21875 C 30.113281 -30.070312 32.867188 -28.972656 34.984375 -27.921875 C 37.109375 -26.867188 38.941406 -25.34375 40.484375 -23.34375 C 42.035156 -21.351562 42.8125 -18.785156 42.8125 -15.640625 C 42.8125 -12.648438 42.050781 -9.929688 40.53125 -7.484375 C 39.007812 -5.035156 36.800781 -3.085938 33.90625 -1.640625 C 31.007812 -0.191406 27.59375 0.53125 23.65625 0.53125 Z M 23.65625 0.53125 "/></g></g></g><g fill="#d79024" fill-opacity="1"><g transform="translate(325.381286, 182.268273)"><g><path d="M 50.15625 -52.546875 L 50.15625 0 L 37.359375 0 L 37.359375 -21.640625 L 17.4375 -21.640625 L 17.4375 0 L 4.640625 0 L 4.640625 -52.546875 L 17.4375 -52.546875 L 17.4375 -31.96875 L 37.359375 -31.96875 L 37.359375 -52.546875 Z M 50.15625 -52.546875 "/></g></g></g></g></g></g></g></g></svg>